HIERARCHY
ROOT Hips
{
	OFFSET 0.000000 0.000000 0.000000
	CHANNELS 6 Xposition Yposition Zposition Zrotation Yrotation Xrotation 
	JOINT LHipJoint
	{
		OFFSET 0.000000 0.000000 0.000000
		CHANNELS 3 Zrotation Yrotation Xrotation
		JOINT LeftUpLeg
		{
			OFFSET 1.363060 -1.794630 0.839290
			CHANNELS 3 Zrotation Yrotation Xrotation
			JOINT LeftLeg
			{
				OFFSET 2.448110 -6.726130 0.000000
				CHANNELS 3 Zrotation Yrotation Xrotation
				JOINT LeftFoot
				{
					OFFSET 2.562200 -7.039590 0.000000
					CHANNELS 3 Zrotation Yrotation Xrotation
					JOINT LeftToeBase
					{
						OFFSET 0.157640 -0.433110 2.322550
						CHANNELS 3 Zrotation Yrotation Xrotation
						End Site
						{
							OFFSET 0.000000 0.000000 0.000000
						}
					}
				}
			}
		}
	}
	JOINT RHipJoint
	{
		OFFSET 0.000000 0.000000 0.000000
		CHANNELS 3 Zrotation Yrotation Xrotation
		JOINT RightUpLeg
		{
			OFFSET -1.305520 -1.794630 0.839290
			CHANNELS 3 Zrotation Yrotation Xrotation
			JOINT RightLeg
			{
				OFFSET -2.542530 -6.985550 0.000000
				CHANNELS 3 Zrotation Yrotation Xrotation
				JOINT RightFoot
				{
					OFFSET -2.568260 -7.056230 0.000000
					CHANNELS 3 Zrotation Yrotation Xrotation
					JOINT RightToeBase
					{
						OFFSET -0.164730 -0.452590 2.363150
						CHANNELS 3 Zrotation Yrotation Xrotation
						End Site
						{
							OFFSET 0.000000 0.000000 0.000000
						}
					}
				}
			}
		}
	}
	JOINT LowerBack
	{
		OFFSET 0.000000 0.000000 0.000000
		CHANNELS 3 Zrotation Yrotation Xrotation
		JOINT Spine
		{
			OFFSET 0.028270 2.035590 -0.193380
			CHANNELS 3 Zrotation Yrotation Xrotation
			JOINT Spine1
			{
				OFFSET 0.056720 2.048850 -0.042750
				CHANNELS 3 Zrotation Yrotation Xrotation
				JOINT Neck
				{
					OFFSET 0.000000 0.000000 0.000000
					CHANNELS 3 Zrotation Yrotation Xrotation
					JOINT Neck1
					{
						OFFSET -0.054170 1.746240 0.172020
						CHANNELS 3 Zrotation Yrotation Xrotation
						JOINT Head
						{
							OFFSET 0.104070 1.761360 -0.123970
							CHANNELS 3 Zrotation Yrotation Xrotation
							End Site
							{
								OFFSET 0.000000 0.000000 0.000000
							}
						}
					}
				}
				JOINT LeftShoulder
				{
					OFFSET 0.000000 0.000000 0.000000
					CHANNELS 3 Zrotation Yrotation Xrotation
					JOINT LeftArm
					{
						OFFSET 3.362410 1.200890 -0.311210
						CHANNELS 3 Zrotation Yrotation Xrotation
						JOINT LeftForeArm
						{
							OFFSET 4.983000 -0.000000 -0.000000
							CHANNELS 3 Zrotation Yrotation Xrotation
							JOINT LeftHand
							{
								OFFSET 3.483560 -0.000000 -0.000000
								CHANNELS 3 Zrotation Yrotation Xrotation
								JOINT LeftFingerBase
								{
									OFFSET 0.000000 0.000000 0.000000
									CHANNELS 3 Zrotation Yrotation Xrotation
									JOINT LeftHandIndex1
									{
										OFFSET 0.715260 -0.000000 -0.000000
										CHANNELS 3 Zrotation Yrotation Xrotation
										End Site
										{
											OFFSET 0.000000 0.000000 0.000000
										}
									}
								}
								JOINT LThumb
								{
									OFFSET 0.000000 0.000000 0.000000
									CHANNELS 3 Zrotation Yrotation Xrotation
									End Site
									{
										OFFSET 0.000000 0.000000 0.000000
									}
								}
							}
						}
					}
				}
				JOINT RightShoulder
				{
					OFFSET 0.000000 0.000000 0.000000
					CHANNELS 3 Zrotation Yrotation Xrotation
					JOINT RightArm
					{
						OFFSET -3.136600 1.374050 -0.404650
						CHANNELS 3 Zrotation Yrotation Xrotation
						JOINT RightForeArm
						{
							OFFSET -5.241900 -0.000000 -0.000000
							CHANNELS 3 Zrotation Yrotation Xrotation
							JOINT RightHand
							{
								OFFSET -3.444170 -0.000000 -0.000000
								CHANNELS 3 Zrotation Yrotation Xrotation
								JOINT RightFingerBase
								{
									OFFSET 0.000000 0.000000 0.000000
									CHANNELS 3 Zrotation Yrotation Xrotation
									JOINT RightHandIndex1
									{
										OFFSET -0.622530 -0.000000 -0.000000
										CHANNELS 3 Zrotation Yrotation Xrotation
										End Site
										{
											OFFSET 0.000000 0.000000 0.000000
										}
									}
								}
								JOINT RThumb
								{
									OFFSET 0.000000 0.000000 0.000000
									CHANNELS 3 Zrotation Yrotation Xrotation
									End Site
									{
										OFFSET 0.000000 0.000000 0.000000
									}
								}
							}
						}
					}
				}
			}
		}
	}
}
MOTION
Frames: 11
Frame Time: 0.008333
-0.961085 17.074757 0.006182 23.264968 81.141311 33.075690 -10.063027 0.795796 3.328411 -8.498207 -2.762317 -28.785142 -2.566023 -0.077077 11.410943 -0.364927 -3.287064 5.144946 -0.362400 0.000000 -33.859300 10.549285 -3.398583 -1.154334 6.241556 -8.069841 -8.093707 -0.064780 -3.224763 44.069792 0.061683 6.108172 11.846464 1.996100 0.000000 -72.720600 -4.795044 -1.027913 -3.214719 -1.880069 -0.849570 -3.691210 -7.421656 -1.000363 -0.060024 12.868747 -3.823701 -5.718744 -4.465429 -0.365494 0.479538 0.000000 0.000000 0.000000 -4.494197 7.688476 2.026749 -68.614558 6.337832 4.449435 -3.740098 -10.843225 -0.004518 3.416686 4.743042 0.144943 -0.068201 -0.017430 -0.000000 0.000000 0.000000 0.000000 0.000000 0.000000 0.000000 22.265744 0.273478 0.281103 71.244986 10.167332 10.709637 2.429496 33.755762 0.006963 -0.370847 7.503821 -0.027159 0.048049 -0.152705 -0.000000 0.000000 0.000000 0.000000 0.000000 0.000000 0.000000 
-0.799832 17.081064 0.033951 23.960762 80.566184 33.688755 -10.001411 0.889289 3.192904 -9.081483 -2.146409 -28.389595 -2.623319 -0.061612 11.970524 -0.359671 -3.237728 4.782208 -0.334001 -0.000000 -33.682800 10.816119 -3.309018 -1.186523 5.639833 -8.612611 -9.753002 -0.364585 -3.348334 47.000586 -0.197847 4.889695 13.764751 1.863800 0.000000 -71.915600 -5.162360 -1.136250 -3.127181 -1.946205 -0.928405 -3.679938 -7.426126 -1.081853 -0.081437 12.952754 -3.815898 -5.717313 -4.467504 -0.365386 0.476529 0.000000 0.000000 0.000000 -4.392618 7.498066 2.035443 -68.447707 6.177870 5.209115 -3.745259 -11.425388 -0.004555 3.322777 4.703799 0.139955 -0.069110 -0.017370 -0.000000 0.000000 0.000000 0.000000 0.000000 0.000000 0.000000 22.383131 0.199335 0.301089 71.536008 9.881592 10.475217 2.435077 33.107638 0.006845 -0.326739 7.405009 -0.023780 0.047042 -0.149213 -0.000000 0.000000 0.000000 0.000000 0.000000 0.000000 0.000000 
-0.642328 17.088035 0.060488 24.076415 79.931970 33.750434 -9.944488 0.979927 3.070966 -9.557559 -1.593651 -27.960419 -2.669130 -0.053608 12.456120 -0.342132 -3.099164 4.296381 -0.286400 0.000001 -33.489200 11.041858 -3.181449 -1.207721 5.183698 -8.971947 -11.423464 -0.633745 -3.451463 49.842727 -0.483356 3.253024 15.300952 1.475100 0.000000 -70.621400 -5.453339 -1.226472 -3.048199 -1.997670 -0.995409 -3.670547 -7.430498 -1.151556 -0.105252 13.010096 -3.798142 -5.715100 -4.470386 -0.365337 0.474124 0.000000 0.000000 0.000000 -4.331999 7.297737 2.044517 -68.259918 5.988626 5.982844 -3.744668 -12.022250 -0.004537 3.251717 4.638862 0.135167 -0.069766 -0.017202 -0.000000 0.000000 0.000000 0.000000 0.000000 0.000000 0.000000 22.471887 0.140738 0.327844 71.812283 9.627219 10.253066 2.443560 32.435224 0.006743 -0.291294 7.313650 -0.021200 0.046273 -0.145869 -0.000000 0.000000 0.000000 0.000000 0.000000 0.000000 0.000000 
-0.488358 17.096098 0.086286 23.806555 79.244225 33.445870 -9.890426 1.065283 2.960920 -9.944122 -1.119662 -27.463209 -2.703785 -0.056163 12.827684 -0.309380 -2.836181 3.731813 -0.217600 0.000000 -33.299100 11.232097 -3.025061 -1.222579 4.847896 -9.169229 -13.087419 -0.871467 -3.543189 52.570421 -0.786150 1.235595 16.360180 0.832500 0.000000 -68.908900 -5.685793 -1.303744 -2.971691 -2.038181 -1.054044 -3.660431 -7.435817 -1.212619 -0.125148 13.047897 -3.751813 -5.714923 -4.475457 -0.365360 0.471021 0.000000 0.000000 0.000000 -4.295826 7.144812 2.055257 -68.047909 5.697207 6.818578 -3.739541 -12.572197 -0.004475 3.215788 4.543880 0.130981 -0.070288 -0.016681 -0.000000 0.000000 0.000000 0.000000 0.000000 0.000000 0.000000 22.545079 0.118057 0.354671 72.071495 9.378792 9.998789 2.453107 31.765454 0.006653 -0.244747 7.223507 -0.017820 0.045408 -0.142610 -0.000000 0.000000 0.000000 0.000000 0.000000 0.000000 0.000000 
-0.337445 17.105904 0.110563 23.118292 78.509735 32.738671 -9.850517 1.144689 2.857930 -10.226572 -0.677801 -26.910270 -2.725923 -0.066673 13.090210 -0.263234 -2.476246 3.115638 -0.138100 0.000000 -33.153300 11.378595 -2.850442 -1.227480 4.661774 -9.200881 -14.726331 -1.081150 -3.625964 55.146633 -1.099814 -1.108173 16.895396 -0.024800 -0.000000 -66.917800 -5.833175 -1.363724 -2.898111 -2.062925 -1.101905 -3.651222 -7.443413 -1.262619 -0.146035 13.062237 -3.699049 -5.712383 -4.483654 -0.365627 0.468951 0.000000 0.000000 0.000000 -4.298890 6.984680 2.065713 -67.813405 5.372225 7.635305 -3.729138 -13.110871 -0.004363 3.218983 4.426856 0.127696 -0.070584 -0.016001 -0.000000 0.000000 0.000000 0.000000 0.000000 0.000000 0.000000 22.603592 0.105097 0.386765 72.298443 9.157878 9.759793 2.466480 31.076979 0.006587 -0.203968 7.145371 -0.015039 0.044776 -0.139443 -0.000000 0.000000 0.000000 0.000000 0.000000 0.000000 0.000000 
-0.189150 17.117863 0.133524 22.132793 77.735566 31.742636 -9.824725 1.218021 2.758318 -10.418320 -0.253067 -26.291758 -2.736717 -0.085510 13.227392 -0.204557 -2.024051 2.487397 -0.052800 0.000000 -33.086500 11.486581 -2.666584 -1.223558 4.608987 -9.090405 -16.327378 -1.265413 -3.703760 57.542433 -1.416607 -3.662816 16.879043 -1.009200 -0.000000 -64.648600 -5.901601 -1.408739 -2.824128 -2.073336 -1.140701 -3.641763 -7.453899 -1.303060 -0.165066 13.057224 -3.636290 -5.707846 -4.495548 -0.366156 0.467640 0.000000 0.000000 0.000000 -4.331273 6.836466 2.075952 -67.558629 4.988084 8.438823 -3.714586 -13.608211 -0.004219 3.265324 4.292696 0.125611 -0.070733 -0.015059 -0.000000 0.000000 0.000000 0.000000 0.000000 0.000000 0.000000 22.654354 0.104941 0.420886 72.490017 8.950976 9.514850 2.483290 30.383168 0.006547 -0.158895 7.074306 -0.012058 0.044243 -0.136306 -0.000000 0.000000 0.000000 0.000000 0.000000 0.000000 0.000000 
-0.042914 17.132332 0.155167 20.920026 76.929271 30.523054 -9.814960 1.285936 2.658244 -10.526790 0.181686 -25.612145 -2.737362 -0.111447 13.238095 -0.136140 -1.503435 1.879075 0.031800 0.000000 -33.130700 11.558877 -2.481744 -1.209864 4.681963 -8.857417 -17.878986 -1.426542 -3.777566 59.725898 -1.728026 -6.286588 16.323717 -2.008000 0.000000 -62.097800 -5.889508 -1.439672 -2.748721 -2.069252 -1.171372 -3.632063 -7.467598 -1.334802 -0.182487 13.034624 -3.573819 -5.699917 -4.511288 -0.366992 0.467593 0.000000 0.000000 0.000000 -4.388974 6.684081 2.085139 -67.287311 4.563801 9.195732 -3.696776 -14.065186 -0.004059 3.352782 4.150861 0.124627 -0.070763 -0.013892 -0.000000 0.000000 0.000000 0.000000 0.000000 0.000000 0.000000 22.700926 0.104360 0.457265 72.640798 8.760587 9.273377 2.504222 29.681017 0.006533 -0.112649 7.010949 -0.008976 0.043882 -0.133160 -0.000000 0.000000 0.000000 0.000000 0.000000 0.000000 0.000000 
0.101620 17.149402 0.175735 19.579388 76.097548 29.172935 -9.819518 1.349608 2.553627 -10.569168 0.643338 -24.869554 -2.730028 -0.143463 13.120141 -0.061106 -0.935836 1.321687 0.111700 -0.000001 -33.305000 11.601635 -2.301758 -1.187638 4.855948 -8.528809 -19.368957 -1.565241 -3.847893 61.667440 -2.023393 -8.816875 15.275335 -2.900399 0.000000 -59.259900 -5.807319 -1.461746 -2.667704 -2.052396 -1.198234 -3.620501 -7.483629 -1.362006 -0.194738 12.997317 -3.494025 -5.688154 -4.530295 -0.368045 0.468644 0.000000 0.000000 0.000000 -4.460384 6.564746 2.094946 -67.005001 4.058139 9.920743 -3.678150 -14.445008 -0.003922 3.474505 4.007542 0.124643 -0.070830 -0.012312 -0.000000 0.000000 0.000000 0.000000 0.000000 0.000000 0.000000 22.742097 0.121010 0.490468 72.755824 8.564910 8.999531 2.527924 28.985757 0.006542 -0.053734 6.950277 -0.005294 0.043493 -0.129929 -0.000000 0.000000 0.000000 0.000000 0.000000 0.000000 0.000000 
0.245019 17.169064 0.195226 18.145249 75.252758 27.726405 -9.840384 1.410133 2.442414 -10.548542 1.157759 -24.083169 -2.716187 -0.178985 12.892460 0.015532 -0.361001 0.833270 0.182300 -0.000000 -33.616500 11.616310 -2.132991 -1.154419 5.125837 -8.124229 -20.791326 -1.680613 -3.912521 63.337052 -2.291035 -11.103326 13.816722 -3.587799 -0.000000 -56.151800 -5.651797 -1.473911 -2.583738 -2.022226 -1.220512 -3.608551 -7.501724 -1.383998 -0.205768 12.945611 -3.432803 -5.670541 -4.551764 -0.369356 0.471826 0.000000 0.000000 0.000000 -4.544348 6.411181 2.102802 -66.718632 3.547596 10.543144 -3.658748 -14.789870 -0.003810 3.619758 3.876090 0.125458 -0.070867 -0.010564 -0.000000 0.000000 0.000000 0.000000 0.000000 0.000000 0.000000 22.778344 0.112914 0.525677 72.828565 8.387409 8.740930 2.556185 28.280797 0.006573 0.000164 6.893586 -0.001912 0.043389 -0.126618 -0.000000 0.000000 0.000000 0.000000 0.000000 0.000000 0.000000 
0.387473 17.190973 0.213959 16.695164 74.402450 26.254770 -9.874759 1.468657 2.320996 -10.482109 1.733733 -23.252996 -2.698520 -0.216397 12.563995 0.089612 0.194547 0.430281 0.242900 -0.000000 -34.053900 11.608562 -1.978177 -1.113176 5.461523 -7.673031 -22.134104 -1.770324 -3.970499 64.712219 -2.517436 -13.007905 12.049005 -4.003800 0.000000 -52.806901 -5.437317 -1.481874 -2.490551 -1.981058 -1.242664 -3.593793 -7.520454 -1.405070 -0.210365 12.882129 -3.349731 -5.647419 -4.574505 -0.370730 0.476488 0.000000 0.000000 0.000000 -4.626624 6.300180 2.112399 -66.430499 2.942488 11.145634 -3.641718 -15.039385 -0.003776 3.775876 3.761145 0.126773 -0.071145 -0.008312 -0.000000 0.000000 0.000000 0.000000 0.000000 0.000000 0.000000 22.802635 0.125018 0.554026 72.872566 8.179160 8.403865 2.586495 27.607596 0.006621 0.079087 6.825255 0.002869 0.043110 -0.123145 -0.000000 0.000000 0.000000 0.000000 0.000000 0.000000 0.000000 
0.529345 17.214683 0.232169 15.269158 73.559984 24.800434 -9.921755 1.526435 2.190248 -10.378116 2.377205 -22.398425 -2.679127 -0.253600 12.158729 0.156678 0.699670 0.117735 0.292700 -0.000000 -34.592000 11.581009 -1.840131 -1.062854 5.846853 -7.198816 -23.397752 -1.831241 -4.019500 65.776393 -2.690323 -14.434277 10.092046 -4.132500 0.000000 -49.309900 -5.170796 -1.487465 -2.392415 -1.929945 -1.266022 -3.577960 -7.538497 -1.426792 -0.213361 12.807594 -3.284319 -5.616934 -4.597000 -0.372164 0.483636 0.000000 0.000000 0.000000 -4.704346 6.153549 2.121502 -66.147562 2.336499 11.640981 -3.627168 -15.252783 -0.003808 3.927140 3.671115 0.128588 -0.071579 -0.005845 0.000000 0.000000 0.000000 0.000000 0.000000 0.000000 0.000000 22.813708 0.110174 0.581675 72.884289 7.974304 8.062239 2.619914 26.940510 0.006675 0.154533 6.752144 0.007351 0.043054 -0.119552 -0.000000 0.000000 0.000000 0.000000 0.000000 0.000000 0.000000 
